<svg xmlns="http://www.w3.org/2000/svg" viewBox="0 0 192 192" width="192" height="192">
  <defs>
    <radialGradient id="bg" cx="50%" cy="50%" r="50%">
      <stop offset="0%" stop-color="#0d1117"/>
      <stop offset="100%" stop-color="#090a0f"/>
    </radialGradient>
    <filter id="glow">
      <feGaussianBlur stdDeviation="2" result="blur"/>
      <feMerge><feMergeNode in="blur"/><feMergeNode in="SourceGraphic"/></feMerge>
    </filter>
  </defs>

  <rect width="192" height="192" rx="36" ry="36" fill="url(#bg)"/>
  <rect width="192" height="192" rx="36" ry="36" fill="none" stroke="#00ff80" stroke-width="1.5" opacity="0.15"/>

  <g filter="url(#glow)" fill="none" stroke="#00ff80" stroke-linecap="round">
    <path d="M 57 96 A 39 39 0 0 1 135 96" stroke-width="5.5" opacity="0.35"/>
    <path d="M 68 96 A 28 28 0 0 1 124 96" stroke-width="5.5" opacity="0.55"/>
    <path d="M 79 96 A 17 17 0 0 1 113 96" stroke-width="5.5" opacity="0.80"/>

    <path d="M 57 96 A 39 39 0 0 0 135 96" stroke-width="5.5" opacity="0.20"/>
    <path d="M 68 96 A 28 28 0 0 0 124 96" stroke-width="5.5" opacity="0.30"/>
    <path d="M 79 96 A 17 17 0 0 0 113 96" stroke-width="5.5" opacity="0.45"/>
  </g>

  <circle cx="96" cy="96" r="8" fill="#00ff80" opacity="0.95" filter="url(#glow)"/>
  <circle cx="96" cy="96" r="3.5" fill="#090a0f"/>

  <text x="96" y="148" font-family="monospace" font-size="13" font-weight="bold" fill="#00ff80" text-anchor="middle" opacity="0.7" letter-spacing="2">BCB</text>
</svg>
